<?xml version="1.0" encoding="utf-8"?>
<!-- Generator: Adobe Illustrator 22.0.1, SVG Export Plug-In . SVG Version: 6.00 Build 0)  -->
<svg version="1.1" id="Layer_1" xmlns="http://www.w3.org/2000/svg" xmlns:xlink="http://www.w3.org/1999/xlink" x="0px" y="0px"
	 viewBox="0 0 25 25" style="enable-background:new 0 0 25 25;" xml:space="preserve">
<style type="text/css">
	.st0{opacity:0.2;}
	.st1{fill:#27A74A;}
</style>
<g class="st0">
	<path class="st1" d="M12.5,3.5l2.1,2.1l0.6,0.6H16h2.9V9v0.8l0.6,0.6l2.1,2.1l-2.1,2.1l-0.6,0.6V16v2.9H16h-0.8l-0.6,0.6l-2.1,2.1
		l-2.1-2.1l-0.6-0.6H9H6.1V16v-0.8l-0.6-0.6l-2.1-2.1l2.1-2.1l0.6-0.6V9V6.1H9h0.8l0.6-0.6L12.5,3.5 M12.5,0.6L9,4.1H4.1V9l-3.5,3.5
		L4.1,16v4.9H9l3.5,3.5l3.5-3.5h4.9V16l3.5-3.5L20.9,9V4.1H16L12.5,0.6L12.5,0.6z"/>
</g>
</svg>
